<?xml version="1.0" encoding="UTF-8"?>
<svg xmlns="http://www.w3.org/2000/svg" version="1.1" viewBox="0 0 16 16">
  <defs>
    <style>
      .cls-1 {
        fill: #231f20;
      }

      .cls-2 {
        fill: #ed1c24;
      }

      .cls-3 {
        fill: #fff;
        stroke: #fff;
        stroke-linecap: round;
        stroke-linejoin: round;
        stroke-width: .1px;
      }
    </style>
  </defs>
  <g>
    <g id="Layer_1">
      <rect class="cls-1" x="0" y=".02" width="16" height="16"/>
      <path class="cls-3" d="M12.41,7.72s1.61-1.19,1.44-2.73-1.01-3.32-3.86-3.44c-2.86-.12-7.83.02-7.83.02v12.92l8.29.02s2.3,0,3.4-2.53c1.1-2.52-1.44-4.25-1.44-4.25ZM5.1,4.67h3.81c.37,0,.66.04.98.22.16.09.31.2.42.34.19.25.25.57.14.86-.12.34-.38.61-.7.77-.36.17-.71.15-1.09.14-.71,0-1.42,0-2.13-.02-.48,0-.95,0-1.43-.02h0v-2.3ZM10.31,11.63c-.37.3-.75.36-1.22.36h-1.28c-.85,0-1.69,0-2.54,0h-.18v-2.37c.68,0,1.37,0,2.06-.02.59,0,1.18-.02,1.77-.03.55,0,1,.02,1.44.38.18.14.32.33.38.55.12.43-.11.86-.44,1.14Z"/>
      <g>
        <path class="cls-1" d="M2.57,14.28c-.02-.06-.04-.18-.04-.29,0-.14.03-.22.11-.29.08-.07.21-.12.4-.12s.35.05.43.16h0c.06-.11.24-.2.5-.2.18,0,.33.04.43.1.12.07.18.19.18.39,0,.11-.02.19-.03.24h-2ZM4.25,14.06s0-.05,0-.09c0-.1-.08-.19-.29-.19s-.29.09-.29.2v.08s.57,0,.57,0ZM3.35,14.06v-.07c0-.12-.1-.18-.25-.18s-.24.06-.24.16c0,.05,0,.08.01.1h.47Z"/>
        <path class="cls-1" d="M2.54,13.39v-.22h1.65s0-.39,0-.39h.39v.62h-2.03Z"/>
        <path class="cls-1" d="M4.05,12.4l.52.07v.23s-2.03-.3-2.03-.3v-.29s2.03-.31,2.03-.31v.24s-.52.08-.52.08v.28ZM3.71,12.15l-.43.06c-.12.02-.27.04-.39.05h0c.12.02.27.03.39.05l.43.06v-.22Z"/>
        <path class="cls-1" d="M4.52,10.97s.09.13.09.25c0,.34-.44.52-1.02.52-.69,0-1.08-.24-1.08-.54,0-.12.05-.2.09-.24l.36.05s-.08.11-.08.19c0,.18.22.32.67.32.41,0,.66-.12.66-.32,0-.07-.03-.14-.07-.19l.36-.03Z"/>
        <path class="cls-1" d="M2.54,10.83v-.22h.9s0,0,0,0c-.08-.02-.15-.05-.22-.07l-.68-.23v-.27s.86.33.86.33l1.17-.35v.26s-.88.24-.88.24l.21.09h.66v.22h-2.03Z"/>
        <path class="cls-1" d="M4.05,9.39l.52.07v.23s-2.03-.3-2.03-.3v-.29s2.03-.31,2.03-.31v.24s-.52.08-.52.08v.28ZM3.71,9.14l-.43.06c-.12.02-.27.04-.39.05h0c.12.02.27.03.39.05l.43.06v-.22Z"/>
        <path class="cls-1" d="M2.57,8.66c-.02-.07-.04-.18-.04-.3,0-.15.05-.25.16-.32.1-.06.24-.09.43-.09.26,0,.44.09.5.17h0c.06-.07.19-.11.38-.13.23-.03.49-.06.57-.08v.23c-.06.02-.22.04-.47.07-.25.03-.32.07-.33.16v.07s.8,0,.8,0v.22h-2ZM3.45,8.43v-.09c0-.11-.11-.18-.29-.18s-.28.06-.28.16c0,.05,0,.09.01.1h.56Z"/>
        <path class="cls-1" d="M2.93,7.59v.27h-.39v-.76h.39v.27s1.65,0,1.65,0v.22h-1.65Z"/>
        <path class="cls-1" d="M4.1,6.67c.06-.06.13-.15.13-.25,0-.1-.09-.16-.22-.16s-.2.05-.29.17c-.12.16-.3.27-.6.27-.35,0-.61-.14-.61-.37,0-.11.05-.19.1-.25l.37.05s-.1.11-.1.21.09.14.2.14c.13,0,.19-.06.29-.18.13-.17.32-.26.61-.26.34,0,.63.13.63.4,0,.11-.06.22-.12.28l-.38-.05Z"/>
        <path class="cls-1" d="M2.93,5.69v.27h-.39v-.76h.39v.27s1.65,0,1.65,0v.22h-1.65Z"/>
        <path class="cls-1" d="M2.54,4.85h1.17c.35,0,.53-.06.53-.18s-.17-.18-.53-.18h-1.17v-.22h1.14c.63,0,.93.15.93.41s-.28.4-.93.4h-1.13v-.22Z"/>
        <path class="cls-1" d="M2.57,4.07c-.03-.08-.04-.19-.04-.3,0-.19.07-.31.22-.41.16-.1.41-.17.77-.17.39,0,.66.07.82.16.18.1.26.26.26.46,0,.12-.02.2-.03.25h-2ZM4.23,3.84s0-.05,0-.08c0-.2-.23-.34-.71-.34-.42,0-.64.12-.64.31,0,.05,0,.08.02.1h1.33Z"/>
        <path class="cls-1" d="M2.54,2.82h2.03v.22h-2.03v-.22Z"/>
        <path class="cls-1" d="M3.54,1.72c.67,0,1.07.2,1.07.49s-.46.47-1.03.47c-.61,0-1.06-.19-1.06-.48s.47-.47,1.03-.47ZM3.57,2.43c.4,0,.68-.09.68-.24s-.3-.24-.69-.24c-.36,0-.68.09-.68.24s.3.24.69.24Z"/>
      </g>
      <rect class="cls-2" x="13.93" y="13.7" width=".81" height=".81" rx=".09" ry=".09"/>
    </g>
  </g>
</svg>