<?xml version="1.0" encoding="utf-8"?>
<!-- Generator: Adobe Illustrator 26.0.1, SVG Export Plug-In . SVG Version: 6.00 Build 0)  -->
<svg version="1.1" id="Layer_1" xmlns="http://www.w3.org/2000/svg" xmlns:xlink="http://www.w3.org/1999/xlink" x="0px" y="0px"
	 viewBox="100" style="enable-background:100;" xml:space="preserve">
<style type="text/css">
	.st0{fill:#13303A;}
	.st1{fill:#B5C7BB;}
	.st2{fill:#A7A9AC;}
	.st3{fill:#B4C5BE;}
	.st4{fill:none;}
	.st5{fill:#BCBEC0;}
	.st6{fill:#6D6E71;}
</style>
<g>
	<path class="st2" d="M88,49.4c18,0,33.1,12.9,36.4,30h2.6c-3.3-18.5-19.6-32.6-39-32.6c-9.5,0-18.4,3.4-25.3,9.2
		C55.8,61.7,50.8,69.8,49,79.2c0,0.1,0,0.2,0,0.2h2.6C55,62,70.3,49.4,88,49.4z M52,95.6C52.1,95.6,52.1,95.6,52,95.6
		c0.4,1.7,0.9,3.2,1.5,4.7c1.8,4.6,4.5,8.7,7.9,12.1c0.9,0.9,1.8,1.7,2.7,2.5c3.5,3,7.7,5.3,12.1,6.8c3.7,1.2,7.6,1.9,11.7,1.9
		c0.1,0,0.3,0,0.4,0c4.2,0,8.3-0.8,12.1-2.2c4.5-1.6,8.6-4.1,12.1-7.2c0.7-0.6,1.3-1.2,1.9-1.8c3.4-3.5,6.1-7.6,7.9-12.1
		c0.6-1.5,1.1-3.1,1.5-4.7h0.8h1.8c-0.4,1.6-0.8,3.2-1.4,4.7c-0.1,0.4-0.3,0.7-0.4,1.1c-1.6,4.1-3.9,7.8-6.8,11
		c-1.6,1.9-3.4,3.6-5.4,5.2c-3.6,2.9-7.7,5.1-12.1,6.6c-0.4,0.1-0.8,0.3-1.2,0.4c-3.5,1-7.2,1.6-11,1.7c-0.1,0-0.3,0-0.4,0
		c-3.9,0-7.8-0.6-11.4-1.7c-0.1,0-0.2-0.1-0.4-0.1c-4.4-1.4-8.5-3.5-12.1-6.2c-2.3-1.7-4.4-3.6-6.2-5.8c-2.4-2.8-4.4-5.8-5.9-9.2
		c-0.5-1-0.9-2-1.2-3c-0.6-1.5-1-3.1-1.4-4.7H52z"/>
</g>
<g>
	<circle class="st4" cx="88" cy="86.4" r="29.6"/>
	<path class="st5" d="M62.5,68.4l0.3-0.5c0.2,0.1,0.4,0.2,0.6,0.2c0.2,0,0.4,0,0.6-0.1c0.2-0.1,0.4-0.3,0.6-0.5
		c0.2-0.2,0.3-0.4,0.3-0.6c0.1-0.2,0.1-0.4,0-0.5c0-0.2-0.1-0.3-0.2-0.4c-0.1-0.1-0.3-0.1-0.4-0.1c-0.1,0-0.3,0.1-0.5,0.2
		c-0.1,0.1-0.4,0.2-0.7,0.5c-0.4,0.3-0.6,0.5-0.8,0.5c-0.2,0.1-0.5,0.1-0.7,0.1c-0.2,0-0.4-0.1-0.6-0.2c-0.2-0.2-0.3-0.4-0.4-0.6
		c-0.1-0.2-0.1-0.5,0-0.8c0.1-0.3,0.2-0.5,0.4-0.8c0.2-0.3,0.5-0.5,0.7-0.6s0.5-0.2,0.8-0.2c0.3,0,0.5,0.1,0.8,0.3l-0.4,0.5
		c-0.3-0.2-0.5-0.2-0.8-0.2c-0.2,0.1-0.5,0.2-0.7,0.5c-0.2,0.3-0.4,0.6-0.4,0.8c0,0.2,0.1,0.4,0.2,0.5c0.1,0.1,0.3,0.2,0.5,0.1
		c0.2,0,0.5-0.2,0.9-0.5s0.7-0.6,0.9-0.7c0.3-0.1,0.5-0.2,0.8-0.2c0.2,0,0.5,0.1,0.7,0.3c0.2,0.2,0.3,0.4,0.4,0.6
		c0.1,0.3,0.1,0.5,0,0.8c-0.1,0.3-0.2,0.6-0.4,0.9c-0.3,0.3-0.6,0.6-0.8,0.7c-0.3,0.2-0.6,0.2-0.9,0.2C63,68.8,62.7,68.6,62.5,68.4z
		"/>
	<path class="st5" d="M68.5,64.1l-3.2-3.7l0.5-0.4l3.2,3.7L68.5,64.1z"/>
	<path class="st5" d="M71.6,61.7l-2.4-4.3l0.6-0.3l4.1,2.1L72,55.8l0.5-0.3l2.4,4.3l-0.6,0.3L70.3,58l1.9,3.3L71.6,61.7z"/>
	<path class="st5" d="M80.9,55.9l0.7,0c0,0.5-0.1,1-0.4,1.4c-0.3,0.4-0.6,0.6-1.1,0.8c-0.5,0.1-1,0.2-1.3,0c-0.4-0.1-0.7-0.3-1-0.7
		s-0.5-0.7-0.6-1.2c-0.1-0.5-0.2-0.9-0.1-1.4c0.1-0.4,0.3-0.8,0.6-1.1c0.3-0.3,0.6-0.5,1.1-0.6c0.5-0.1,0.9-0.1,1.3,0
		c0.4,0.1,0.7,0.4,1,0.8l-0.6,0.3c-0.2-0.3-0.4-0.5-0.7-0.6c-0.3-0.1-0.5-0.1-0.9,0c-0.4,0.1-0.6,0.3-0.8,0.5
		c-0.2,0.2-0.3,0.5-0.3,0.8s0,0.6,0.1,0.9c0.1,0.4,0.3,0.7,0.5,1c0.2,0.3,0.4,0.4,0.7,0.5c0.3,0.1,0.6,0.1,0.9,0
		c0.3-0.1,0.6-0.3,0.8-0.6C80.9,56.6,81,56.3,80.9,55.9z"/>
	<path class="st5" d="M85,56.9L84.8,52l3.5-0.2l0,0.6l-2.9,0.1l0.1,1.5l2.7-0.1l0,0.6l-2.7,0.1l0.1,1.7l3-0.1l0,0.6L85,56.9z"/>
	<path class="st5" d="M98.8,58.1l-0.2,0.5l-3.1-1c0-0.1,0.1-0.3,0.2-0.4c0.1-0.2,0.3-0.4,0.6-0.5c0.2-0.1,0.6-0.3,1-0.5
		c0.6-0.3,1.1-0.5,1.3-0.7c0.3-0.2,0.4-0.4,0.5-0.6c0.1-0.2,0.1-0.4-0.1-0.7c-0.1-0.2-0.3-0.4-0.6-0.4c-0.3-0.1-0.5-0.1-0.7,0
		c-0.2,0.1-0.4,0.3-0.5,0.6l-0.6-0.2c0.2-0.4,0.4-0.7,0.8-0.9c0.3-0.1,0.7-0.1,1.2,0c0.4,0.1,0.8,0.4,0.9,0.7c0.2,0.3,0.2,0.7,0.1,1
		c-0.1,0.2-0.2,0.4-0.3,0.5c-0.1,0.2-0.3,0.3-0.6,0.4c-0.2,0.1-0.6,0.3-1.1,0.5c-0.4,0.2-0.7,0.3-0.9,0.4c-0.1,0.1-0.2,0.1-0.3,0.2
		L98.8,58.1z"/>
	<path class="st5" d="M102.4,57.7c0.3-0.5,0.6-0.9,0.8-1.1c0.3-0.2,0.6-0.4,0.9-0.4c0.3-0.1,0.6,0,0.9,0.2c0.2,0.1,0.4,0.3,0.5,0.5
		c0.1,0.2,0.2,0.4,0.2,0.6c0,0.2,0,0.5-0.1,0.8c-0.1,0.3-0.2,0.6-0.5,1.1c-0.3,0.5-0.6,0.9-0.8,1.1c-0.3,0.2-0.6,0.4-0.9,0.5
		c-0.3,0.1-0.6,0-0.9-0.2c-0.4-0.2-0.6-0.6-0.7-1C101.8,59.2,102,58.5,102.4,57.7z M103,58c-0.4,0.7-0.6,1.2-0.5,1.5
		c0,0.3,0.2,0.6,0.4,0.7c0.2,0.1,0.5,0.1,0.8,0c0.3-0.1,0.6-0.6,1-1.3c0.4-0.7,0.6-1.2,0.5-1.5c0-0.3-0.2-0.6-0.4-0.7
		c-0.2-0.1-0.5-0.1-0.7,0C103.7,56.9,103.4,57.3,103,58z"/>
	<path class="st5" d="M109.1,64.7l-0.4,0.4l-2.4-2.1c0.1-0.1,0.2-0.2,0.3-0.3c0.2-0.1,0.4-0.2,0.7-0.2s0.6-0.1,1.1,0
		c0.7,0,1.2,0,1.5-0.1c0.3-0.1,0.5-0.2,0.7-0.4c0.2-0.2,0.2-0.4,0.2-0.6c0-0.2-0.1-0.4-0.3-0.6c-0.2-0.2-0.5-0.3-0.7-0.3
		c-0.2,0-0.5,0.1-0.7,0.4l-0.4-0.5c0.3-0.3,0.7-0.5,1.1-0.5c0.4,0,0.7,0.2,1.1,0.5c0.4,0.3,0.5,0.7,0.6,1c0,0.4-0.1,0.7-0.3,1
		c-0.1,0.1-0.3,0.3-0.5,0.4s-0.4,0.2-0.7,0.2c-0.3,0-0.7,0-1.3,0c-0.5,0-0.8,0-0.9,0c-0.1,0-0.3,0-0.4,0.1L109.1,64.7z"/>
	<path class="st5" d="M111.9,68.8l0.9-0.7l-1.3-1.7l0.4-0.3l3.9-0.1l0.3,0.4l-2.5,1.9l0.4,0.5l-0.4,0.3l-0.4-0.5l-0.9,0.7
		L111.9,68.8z M113.2,67.7l1.8-1.3l-2.7,0.1L113.2,67.7z"/>
</g>
<g>
	<circle class="st4" cx="88" cy="86.1" r="35.1"/>
	<path class="st2" d="M56.7,102.1l3.4-1.7l-0.7-1.3l0.4-0.2l1.6,3l-0.4,0.2l-0.7-1.3l-3.4,1.7L56.7,102.1z"/>
	<path class="st2" d="M58.9,105.8l3.4-2.6l1.1,1.5c0.2,0.3,0.4,0.6,0.4,0.8c0.1,0.2,0,0.4,0,0.6c-0.1,0.2-0.2,0.4-0.4,0.5
		c-0.2,0.2-0.5,0.3-0.8,0.2s-0.6-0.2-0.9-0.5c0,0.2,0,0.3,0,0.4c0,0.2-0.1,0.5-0.2,0.7l-0.5,1.3l-0.4-0.6l0.4-1
		c0.1-0.3,0.2-0.5,0.2-0.7c0-0.2,0.1-0.3,0.1-0.4c0-0.1,0-0.2-0.1-0.3c0-0.1-0.1-0.1-0.2-0.3l-0.4-0.5l-1.5,1.1L58.9,105.8z
		 M61.2,104.9l0.7,1c0.2,0.2,0.3,0.4,0.4,0.4c0.1,0.1,0.3,0.1,0.4,0.1c0.1,0,0.3-0.1,0.4-0.1c0.2-0.1,0.2-0.3,0.3-0.5
		c0-0.2-0.1-0.4-0.3-0.7l-0.8-1.1L61.2,104.9z"/>
	<path class="st2" d="M67.8,109.4l0.4,0.4l-1.7,1.8c-0.3,0.3-0.6,0.5-0.8,0.7c-0.2,0.1-0.5,0.1-0.8,0.1c-0.3-0.1-0.6-0.2-0.9-0.5
		c-0.3-0.3-0.5-0.5-0.6-0.8c-0.1-0.3-0.1-0.5,0-0.8c0.1-0.3,0.3-0.6,0.6-0.9l1.7-1.8l0.4,0.4l-1.7,1.8c-0.3,0.3-0.4,0.5-0.5,0.7
		c-0.1,0.2-0.1,0.4,0,0.5c0.1,0.2,0.2,0.4,0.4,0.5c0.3,0.3,0.6,0.4,0.8,0.4c0.3,0,0.6-0.2,0.9-0.6L67.8,109.4z"/>
	<path class="st2" d="M68.1,113.4l0.5,0.3c-0.1,0.2-0.1,0.4-0.1,0.5c0,0.2,0.1,0.3,0.2,0.5c0.1,0.2,0.3,0.3,0.5,0.5
		c0.2,0.1,0.4,0.2,0.5,0.2c0.2,0,0.3,0,0.5,0c0.1,0,0.2-0.1,0.3-0.2c0.1-0.1,0.1-0.2,0.1-0.4c0-0.1-0.1-0.3-0.2-0.4
		c-0.1-0.1-0.2-0.3-0.5-0.6c-0.3-0.3-0.5-0.5-0.5-0.7c-0.1-0.2-0.2-0.4-0.2-0.6c0-0.2,0.1-0.4,0.2-0.5c0.1-0.2,0.3-0.3,0.5-0.4
		c0.2-0.1,0.4-0.1,0.7-0.1c0.3,0,0.5,0.1,0.7,0.3c0.3,0.2,0.5,0.4,0.6,0.6c0.1,0.2,0.2,0.4,0.2,0.7c0,0.2-0.1,0.5-0.2,0.7l-0.5-0.3
		c0.1-0.2,0.2-0.5,0.1-0.7s-0.2-0.4-0.5-0.6c-0.3-0.2-0.5-0.3-0.7-0.3c-0.2,0-0.3,0.1-0.4,0.3c-0.1,0.1-0.1,0.3-0.1,0.4
		c0,0.1,0.2,0.4,0.5,0.7c0.3,0.3,0.5,0.6,0.6,0.7c0.1,0.2,0.2,0.5,0.2,0.7c0,0.2-0.1,0.4-0.2,0.6c-0.1,0.2-0.3,0.3-0.5,0.4
		c-0.2,0.1-0.5,0.1-0.7,0.1c-0.3,0-0.5-0.1-0.8-0.3c-0.3-0.2-0.6-0.4-0.7-0.7c-0.2-0.2-0.2-0.5-0.2-0.8
		C67.8,113.9,67.9,113.6,68.1,113.4z"/>
	<path class="st2" d="M73.4,118l1.5-3.5l-1.3-0.6l0.2-0.5l3.1,1.4l-0.2,0.5l-1.3-0.6l-1.5,3.5L73.4,118z"/>
	<path class="st2" d="M77.5,119.6l1.1-4.1l3,0.8l-0.1,0.5l-2.4-0.7l-0.3,1.3l2.3,0.6l-0.1,0.5l-2.3-0.6l-0.4,1.4l2.5,0.7l-0.1,0.5
		L77.5,119.6z"/>
	<path class="st2" d="M83.1,120.9l0.4-4.3l1.5,0.1c0.3,0,0.6,0.1,0.8,0.1c0.2,0.1,0.4,0.2,0.6,0.4c0.2,0.2,0.4,0.5,0.4,0.8
		c0.1,0.3,0.1,0.6,0.1,1c0,0.3-0.1,0.6-0.2,0.9c-0.1,0.2-0.2,0.4-0.3,0.6c-0.1,0.2-0.3,0.3-0.4,0.4c-0.1,0.1-0.3,0.1-0.5,0.2
		c-0.2,0-0.4,0-0.7,0L83.1,120.9z M83.7,120.4l0.9,0.1c0.3,0,0.5,0,0.7,0c0.2,0,0.3-0.1,0.4-0.2c0.1-0.1,0.3-0.3,0.4-0.5
		c0.1-0.2,0.2-0.5,0.2-0.8c0-0.4,0-0.8-0.1-1c-0.1-0.3-0.3-0.4-0.5-0.5c-0.1-0.1-0.4-0.1-0.7-0.2l-0.9-0.1L83.7,120.4z"/>
	<path class="st2" d="M95.7,119.9c0.3,0.1,0.6,0.2,0.8,0.3l-0.1,0.4c-0.3-0.1-0.7-0.2-1-0.3c-0.3,0.2-0.6,0.4-1,0.5
		c-0.4,0.1-0.7,0-1.1-0.1c-0.3-0.1-0.6-0.3-0.9-0.6c-0.2-0.3-0.4-0.7-0.5-1.1c-0.1-0.4-0.1-0.8,0-1.2c0.1-0.4,0.3-0.7,0.6-0.9
		c0.3-0.2,0.6-0.4,1-0.5c0.4-0.1,0.8,0,1.1,0.1c0.3,0.1,0.6,0.3,0.9,0.6c0.2,0.3,0.4,0.7,0.5,1.1c0.1,0.3,0.1,0.7,0,1
		C96,119.4,95.9,119.6,95.7,119.9z M94.3,119.4c0.3,0,0.6,0.1,0.9,0.3c0.3-0.4,0.4-0.8,0.2-1.4c-0.1-0.3-0.2-0.6-0.3-0.9
		c-0.2-0.2-0.4-0.4-0.6-0.5s-0.5-0.1-0.8-0.1c-0.4,0.1-0.7,0.3-1,0.6c-0.2,0.3-0.3,0.8-0.2,1.4c0.1,0.5,0.3,0.9,0.6,1.2
		c0.3,0.2,0.7,0.3,1.1,0.2c0.2,0,0.4-0.1,0.5-0.2c-0.2-0.1-0.4-0.1-0.6-0.1L94.3,119.4z"/>
	<path class="st2" d="M100,114.5l0.5-0.2l0.9,2.3c0.2,0.4,0.2,0.7,0.2,1c0,0.3-0.1,0.5-0.3,0.8c-0.2,0.2-0.5,0.4-0.9,0.6
		c-0.4,0.1-0.7,0.2-1,0.2s-0.5-0.2-0.7-0.4c-0.2-0.2-0.4-0.5-0.5-0.9l-0.9-2.3l0.5-0.2l0.9,2.3c0.1,0.3,0.3,0.6,0.4,0.7
		c0.1,0.1,0.3,0.2,0.5,0.3c0.2,0,0.4,0,0.6-0.1c0.4-0.1,0.6-0.3,0.7-0.6c0.1-0.2,0.1-0.6-0.1-1.1L100,114.5z"/>
	<path class="st2" d="M104.1,117.3l-0.8-4.5l0.5-0.3l3.7,2.8l-0.6,0.3l-1.1-0.9l-1.5,0.9l0.3,1.4L104.1,117.3z M104.3,115.2l1.3-0.7
		l-1-0.8c-0.3-0.2-0.5-0.4-0.7-0.6c0.1,0.3,0.2,0.5,0.2,0.8L104.3,115.2z"/>
	<path class="st2" d="M109.4,113.9l-2.7-3.3l0.4-0.4l2.4,2.9l1.6-1.3l0.3,0.4L109.4,113.9z"/>
	<path class="st2" d="M113.2,110.5l-3.1-3l0.4-0.4l3.1,3L113.2,110.5z"/>
	<path class="st2" d="M116,107.2l-3-2.2l-0.8,1.1l-0.4-0.3l2-2.7l0.4,0.3l-0.8,1.1l3,2.2L116,107.2z"/>
	<path class="st2" d="M119,102.5l-1.6-0.8l-3,0.3l0.3-0.6l1.5-0.2c0.3,0,0.6,0,0.8-0.1c-0.1-0.2-0.3-0.5-0.5-0.8l-0.7-1.3l0.3-0.6
		l1.4,2.7l1.6,0.8L119,102.5z"/>
</g>
<polygon class="st2" points="86.6,66.6 87,64.6 85.5,63.2 87.6,62.9 88.5,61.1 89.3,63 91.4,63.3 89.9,64.7 90.2,66.7 88.4,65.7 "/>
<polygon class="st2" points="77.9,70.2 78.3,68.2 76.9,66.8 78.9,66.5 79.9,64.8 80.7,66.6 82.7,67 81.2,68.3 81.5,70.3 79.7,69.3 
	"/>
<polygon class="st2" points="99.3,71.2 97.5,70.1 95.7,71 96.1,69 94.8,67.5 96.8,67.3 97.8,65.6 98.6,67.4 100.6,67.8 99,69.2 "/>
<polygon class="st2" points="91.3,107.8 89.8,109.2 90.1,111.2 88.4,110.2 86.6,111.1 87,109.1 85.6,107.6 87.6,107.4 88.5,105.7 
	89.3,107.5 "/>
<polygon class="st2" points="100.5,103.9 98.9,105.1 99,107.1 97.4,106 95.5,106.7 96.1,104.8 94.8,103.2 96.8,103.2 97.9,101.5 
	98.6,103.4 "/>
<polygon class="st2" points="79.9,102.1 80.7,104 82.7,104.4 81.1,105.7 81.4,107.7 79.6,106.7 77.8,107.5 78.3,105.5 76.9,104 
	78.9,103.9 "/>
<g>
	<path class="st6" d="M25.4,91.6c-0.2-0.7-0.4-1.5-0.4-2.3c0-0.6,0.1-1.3,0.2-2.1c0.3-1.8,0.9-3.3,1.8-4.6c0.9-1.4,2-2.1,3.2-2.1
		c0.6,0,1.1,0.3,1.3,0.9c0.1,0.3,0.2,0.7,0.2,1.1c0,0.3,0,0.5-0.1,0.8c-0.1,0.5-0.3,0.9-0.5,1.2c-0.1,0.1-0.1,0.1-0.2,0.1h0
		c-0.1,0-0.1,0-0.2-0.1c0,0-0.1-0.1-0.1-0.2v0l0,0c0-0.1,0.1-0.2,0.1-0.2c0.2-0.2,0.3-0.4,0.3-0.7c0-0.2,0.1-0.3,0.1-0.6v-0.1
		c0-0.2,0-0.4,0-0.5c-0.1-0.5-0.3-0.7-0.6-0.7c-0.7,0-1.4,0.8-2,2.3c-0.2,0.6-0.5,1.2-0.6,1.8c-0.1,0.5-0.2,0.9-0.3,1.3l0,0.1
		c-0.1,0.5-0.2,1-0.2,1.6c0,0.2,0,0.5,0,0.7c0,0.4,0,0.8,0.1,1.1c0.2,1.4,0.7,2.1,1.7,2.1c0.3,0,0.6-0.2,1-0.7
		c0.1-0.2,0.3-0.4,0.4-0.6c0.1-0.2,0.2-0.3,0.3-0.5c0-0.1,0.1-0.1,0.2-0.2c0,0,0.1,0,0.1,0s0.1,0,0.1,0c0.1,0,0.1,0.1,0.1,0.2
		c0,0,0,0,0,0.1c0,0,0,0,0,0.1c0,0,0,0.1,0,0.1c-0.4,0.7-0.9,1.3-1.4,1.8c-0.6,0.6-1.3,0.9-1.9,0.9C26.7,93.6,25.9,92.9,25.4,91.6z"
		/>
	<path class="st6" d="M36.7,85.1L36.7,85.1L36.7,85.1c0.4,0.2,0.7,0.7,0.7,1.4c0,0.1,0,0.2,0,0.4c0,0.2,0,0.4,0,0.6
		c0,0.3-0.1,0.6-0.1,0.9c-0.1,0.3-0.2,0.7-0.3,1c0.1,0,0.2,0,0.3,0c0.5,0,0.9-0.4,1.3-1.1c0.2-0.3,0.3-0.6,0.4-0.9
		c0.1-0.3,0.2-0.5,0.3-0.8c0.1-0.2,0.1-0.2,0.3-0.2h0.1c0.1,0,0.2,0.1,0.2,0.2c0,0,0,0.1,0,0.1l0,0.1c-0.1,0.4-0.2,0.7-0.4,1
		c-0.2,0.4-0.3,0.7-0.5,1c-0.5,0.8-1,1.2-1.6,1.2l-0.2,0c-0.1,0-0.3,0-0.4,0c-0.3,0.7-0.6,1.2-1,1.6c-0.5,0.5-0.9,0.7-1.5,0.7
		c-0.7,0-1.1-0.5-1.4-1.4c-0.1-0.4-0.2-0.9-0.2-1.4c0-0.5,0.1-1,0.2-1.6c0.2-1,0.5-1.8,0.9-2.4c0.5-0.7,1-1.1,1.7-1.1
		c0.3,0,0.5,0,0.7,0.1c0.2,0.1,0.4,0.3,0.5,0.5C36.7,85.1,36.7,85.1,36.7,85.1z M35.9,90.7c0.1-0.1,0.2-0.3,0.3-0.5
		c0.1-0.1,0.1-0.3,0.2-0.4c-0.5-0.2-0.9-0.7-1.1-1.3c-0.2-0.4-0.3-0.8-0.3-1.2c0-0.2,0-0.4,0.1-0.7c0.1-0.3,0.2-0.6,0.4-0.9
		c0.2-0.3,0.4-0.5,0.7-0.6c0,0-0.1-0.1-0.1-0.1c0,0-0.1-0.1-0.1-0.1c-0.3,0-0.5,0.3-0.8,0.9c-0.3,0.5-0.5,1.2-0.6,2
		c-0.1,0.6-0.2,1.2-0.2,1.6c0,0.2,0,0.5,0,0.7c0.1,0.7,0.4,1.1,0.8,1.1C35.4,91.3,35.7,91.1,35.9,90.7z M36.8,88.4
		c0.1-0.5,0.1-0.9,0.1-1.3c0-0.2,0-0.4,0-0.5c0-0.2-0.1-0.4-0.1-0.5c-0.1-0.2-0.2-0.3-0.3-0.3c0,0-0.1,0-0.1,0
		c-0.2,0-0.4,0.1-0.5,0.3c-0.1,0.2-0.2,0.4-0.3,0.6c0,0.2,0,0.4,0,0.5c0,0.3,0.1,0.7,0.2,1c0.2,0.5,0.5,0.8,0.9,1.1
		C36.7,89,36.8,88.7,36.8,88.4z"/>
	<path class="st6" d="M43.3,85.1L43.3,85.1L43.3,85.1c0.4,0.2,0.7,0.7,0.7,1.4c0,0.1,0,0.2,0,0.4c0,0.2,0,0.4,0,0.6
		c0,0.3-0.1,0.6-0.1,0.9c-0.1,0.3-0.2,0.7-0.3,1c0.1,0,0.2,0,0.3,0c0.5,0,0.9-0.4,1.3-1.1c0.2-0.3,0.3-0.6,0.4-0.9
		c0.1-0.3,0.2-0.5,0.3-0.8c0.1-0.2,0.1-0.2,0.3-0.2h0.1c0.1,0,0.2,0.1,0.2,0.2c0,0,0,0.1,0,0.1l0,0.1c-0.1,0.4-0.2,0.7-0.4,1
		c-0.2,0.4-0.3,0.7-0.5,1c-0.5,0.8-1,1.2-1.6,1.2l-0.2,0c-0.1,0-0.3,0-0.4,0c-0.3,0.7-0.6,1.2-1,1.6c-0.5,0.5-0.9,0.7-1.5,0.7
		c-0.7,0-1.1-0.5-1.4-1.4c-0.1-0.4-0.2-0.9-0.2-1.4c0-0.5,0.1-1,0.2-1.6c0.2-1,0.5-1.8,0.9-2.4c0.5-0.7,1-1.1,1.7-1.1
		c0.3,0,0.5,0,0.7,0.1c0.2,0.1,0.4,0.3,0.5,0.5C43.3,85.1,43.3,85.1,43.3,85.1z M42.5,90.7c0.1-0.1,0.2-0.3,0.3-0.5
		c0.1-0.1,0.1-0.3,0.2-0.4c-0.5-0.2-0.9-0.7-1.1-1.3c-0.2-0.4-0.3-0.8-0.3-1.2c0-0.2,0-0.4,0.1-0.7c0.1-0.3,0.2-0.6,0.4-0.9
		c0.2-0.3,0.4-0.5,0.7-0.6c0,0-0.1-0.1-0.1-0.1c0,0-0.1-0.1-0.1-0.1c-0.3,0-0.5,0.3-0.8,0.9c-0.3,0.5-0.5,1.2-0.6,2
		c-0.1,0.6-0.2,1.2-0.2,1.6c0,0.2,0,0.5,0,0.7c0.1,0.7,0.4,1.1,0.8,1.1C42,91.3,42.2,91.1,42.5,90.7z M43.4,88.4
		c0.1-0.5,0.1-0.9,0.1-1.3c0-0.2,0-0.4,0-0.5c0-0.2-0.1-0.4-0.1-0.5c-0.1-0.2-0.2-0.3-0.3-0.3c0,0-0.1,0-0.1,0
		c-0.2,0-0.4,0.1-0.5,0.3c-0.1,0.2-0.2,0.4-0.3,0.6c0,0.2,0,0.4,0,0.5c0,0.3,0.1,0.7,0.2,1c0.2,0.5,0.5,0.8,0.9,1.1
		C43.3,89,43.3,88.7,43.4,88.4z"/>
	<path class="st6" d="M46.2,87.2c0-0.2,0.1-0.5,0.1-0.7c0-0.2,0.1-0.4,0.2-0.6c0.1-0.3,0.2-0.6,0.2-0.9c0.2-0.7,0.4-1.4,0.7-2
		c0.7-1.7,1.4-2.5,2.2-2.5c0.1,0,0.2,0,0.3,0.1c0.1,0.1,0.2,0.3,0.2,0.5c0,0.1,0,0.2,0,0.3l0,0.1c0,0.1,0,0.2-0.1,0.3
		c0,0.1-0.1,0.3-0.2,0.4c-0.3,0.7-0.7,1.4-1.2,2.1c-0.2,0.2-0.3,0.5-0.5,0.7l0,0.2c-0.2,1-0.3,2-0.4,2.9c-0.1,0.8-0.1,1.5-0.1,2.1
		c0,0.3,0,0.5,0,0.7c0,0.6,0.1,0.8,0.3,0.8c0.2,0,0.5-0.3,0.8-1c0.5-1,1-2.3,1.5-4c0-0.1,0.1-0.2,0.2-0.2c0.1,0,0.1-0.1,0.2-0.1h0
		c0.1,0,0.1,0.1,0.2,0.1c0,0,0,0.1,0,0.1c0,0,0,0.1,0,0.1l0,0.1c-0.5,1.7-1,3.1-1.5,4.1c-0.3,0.6-0.5,1-0.8,1.3
		c-0.4,0.4-0.8,0.6-1.2,0.6c-0.8,0-1.2-0.6-1.3-1.9c0-0.2,0-0.4,0-0.6c0-0.3,0-0.7,0.1-1.1c0-0.2,0-0.5,0.1-0.8
		c0-0.2,0.1-0.4,0.1-0.6C46.2,87.6,46.2,87.4,46.2,87.2z M49.4,81.1c-0.1,0-0.2,0.2-0.4,0.4c-0.1,0.1-0.1,0.2-0.2,0.3
		c0,0,0,0.1-0.1,0.1c0,0,0,0.1,0,0.1c-0.2,0.4-0.3,0.9-0.4,1.4c0.3-0.5,0.6-1,0.8-1.5c0-0.1,0-0.1,0.1-0.2c0-0.1,0.1-0.2,0.1-0.3
		c0-0.1,0.1-0.2,0.1-0.3C49.5,81.2,49.5,81.2,49.4,81.1L49.4,81.1L49.4,81.1z"/>
	<path class="st6" d="M59.3,89.9c0.2-0.5,0.3-1,0.5-1.4c0.3-1,0.7-1.8,0.9-2.4c0-0.1,0.1-0.1,0.1-0.2c0-0.1,0.1-0.1,0.1-0.2
		c0.1-0.2,0.2-0.3,0.3-0.4c0.2-0.3,0.5-0.5,0.7-0.5c0.3,0,0.5,0.2,0.6,0.6c0,0.1,0.1,0.3,0.1,0.5c0,0.1,0,0.3,0,0.5
		c0,0.3-0.1,0.7-0.1,1.2l-0.1,0.6l-0.1,0.6l-0.1,0.6L62,89.8c-0.1,0.4-0.1,0.8-0.1,1.2c0,0,0,0,0,0.1l0,0.1v0.3c0,0.3,0,0.4,0.1,0.4
		c0.1,0,0.3-0.2,0.5-0.6c0.1-0.1,0.2-0.3,0.3-0.4l0.1-0.2l0.1-0.1c0.5-1,0.9-2.3,1.5-4c0.1-0.2,0.1-0.2,0.3-0.2h0.1
		c0.1,0,0.2,0.1,0.2,0.2c0,0,0,0,0,0.1c0,0,0,0,0,0.1c-0.5,1.7-1,3.1-1.5,4.1c-0.1,0.2-0.2,0.5-0.4,0.7c-0.2,0.3-0.3,0.5-0.5,0.7
		C62,92.7,61.6,93,61.2,93c-0.5,0-0.8-0.5-0.8-1.5v-0.2c0-0.3,0-0.6,0.1-1c0-0.2,0-0.3,0.1-0.5c0-0.1,0-0.1,0-0.2l0-0.1l0-0.1
		l0.2-1.1l0.2-1l0-0.1c0,0,0-0.1,0-0.1c0-0.1,0-0.2,0-0.3c-0.2,0.5-0.4,1-0.7,1.8c-0.3,0.9-0.6,1.8-0.9,2.8c0,0.2-0.1,0.3-0.2,0.5
		c-0.1,0.2-0.2,0.4-0.3,0.6c-0.3,0.5-0.6,0.7-0.9,0.7c-0.3,0-0.5-0.3-0.5-0.9v-0.2c0-0.2,0-0.3,0-0.6c0-0.1,0-0.2,0-0.3l0-0.1l0-0.1
		c0-0.3,0.1-0.6,0.2-0.9l0.2-0.9c0-0.2,0.1-0.4,0.1-0.6c0.1-0.5,0.2-1,0.2-1.3l0,0l0,0l0-0.1c0-0.1,0-0.2,0-0.2
		c-0.3,0.5-0.6,1.3-0.9,2.2c-0.2,0.6-0.4,1.3-0.6,2l-0.1,0.3l-0.1,0.3c-0.1,0.2-0.1,0.5-0.1,0.6c0,0.2-0.2,0.3-0.5,0.4
		c-0.1,0-0.2,0-0.3,0.1c-0.1,0-0.1,0-0.1,0c0,0-0.1,0-0.1,0c-0.1,0-0.2,0-0.3-0.1c-0.1-0.1-0.1-0.1-0.1-0.2c0,0,0-0.1,0-0.1
		c0.1-0.4,0.1-0.8,0.2-1.2c0.1-0.6,0.1-1.1,0.2-1.6c0.1-0.6,0.1-1.1,0.1-1.6c0-0.5,0-0.8-0.1-1.1c0,0,0-0.1,0-0.1c0,0,0,0,0-0.1
		c0-0.1,0-0.1,0.1-0.2c0.1-0.2,0.3-0.3,0.4-0.4C56,86,56.1,86,56.3,86c0.2,0,0.4,0.1,0.5,0.4c0,0.1,0.1,0.2,0.1,0.4
		c0,0.1,0,0.2,0.1,0.4c0,0.2,0,0.4,0,0.7c0,0.4,0,0.8-0.1,1.3l0-0.1c0.3-1,0.7-1.7,1-2.3c0.1-0.1,0.1-0.3,0.2-0.4
		c0.1-0.2,0.2-0.3,0.3-0.4c0.2-0.3,0.5-0.4,0.7-0.4c0.1,0,0.2,0,0.3,0.1c0.3,0.2,0.4,0.6,0.4,1.3v0.2c0,0.3,0,0.6-0.1,1
		c0,0.1,0,0.3-0.1,0.4l-0.1,0.4l-0.1,0.6L59.3,89.9z"/>
	<path class="st6" d="M68.2,85.1L68.2,85.1L68.2,85.1c0.4,0.2,0.7,0.7,0.7,1.4c0,0.1,0,0.2,0,0.4c0,0.2,0,0.4,0,0.6
		c0,0.3-0.1,0.6-0.1,0.9c-0.1,0.3-0.2,0.7-0.3,1c0.1,0,0.2,0,0.3,0c0.5,0,0.9-0.4,1.3-1.1c0.2-0.3,0.3-0.6,0.4-0.9
		c0.1-0.3,0.2-0.5,0.3-0.8c0.1-0.2,0.1-0.2,0.3-0.2h0.1c0.1,0,0.2,0.1,0.2,0.2c0,0,0,0.1,0,0.1l0,0.1c-0.1,0.4-0.2,0.7-0.4,1
		c-0.2,0.4-0.3,0.7-0.5,1c-0.5,0.8-1,1.2-1.6,1.2l-0.2,0c-0.1,0-0.3,0-0.4,0c-0.3,0.7-0.6,1.2-1,1.6c-0.5,0.5-0.9,0.7-1.5,0.7
		c-0.7,0-1.1-0.5-1.4-1.4c-0.1-0.4-0.2-0.9-0.2-1.4c0-0.5,0.1-1,0.2-1.6c0.2-1,0.5-1.8,0.9-2.4c0.5-0.7,1-1.1,1.7-1.1
		c0.3,0,0.5,0,0.7,0.1c0.2,0.1,0.4,0.3,0.5,0.5C68.2,85.1,68.2,85.1,68.2,85.1z M67.4,90.7c0.1-0.1,0.2-0.3,0.3-0.5
		c0.1-0.1,0.1-0.3,0.2-0.4c-0.5-0.2-0.9-0.7-1.1-1.3c-0.2-0.4-0.3-0.8-0.3-1.2c0-0.2,0-0.4,0.1-0.7c0.1-0.3,0.2-0.6,0.4-0.9
		c0.2-0.3,0.4-0.5,0.7-0.6c0,0-0.1-0.1-0.1-0.1c0,0-0.1-0.1-0.1-0.1c-0.3,0-0.5,0.3-0.8,0.9c-0.3,0.5-0.5,1.2-0.6,2
		c-0.1,0.6-0.2,1.2-0.2,1.6c0,0.2,0,0.5,0,0.7c0.1,0.7,0.4,1.1,0.8,1.1C66.9,91.3,67.2,91.1,67.4,90.7z M68.3,88.4
		c0.1-0.5,0.1-0.9,0.1-1.3c0-0.2,0-0.4,0-0.5c0-0.2-0.1-0.4-0.1-0.5c-0.1-0.2-0.2-0.3-0.3-0.3c0,0-0.1,0-0.1,0
		c-0.2,0-0.4,0.1-0.5,0.3c-0.1,0.2-0.2,0.4-0.3,0.6c0,0.2,0,0.4,0,0.5c0,0.3,0.1,0.7,0.2,1c0.2,0.5,0.5,0.8,0.9,1.1
		C68.2,89,68.3,88.7,68.3,88.4z"/>
	<path class="st6" d="M75.3,89.9c0.2-0.5,0.3-1,0.5-1.4c0.3-1,0.7-1.8,0.9-2.4c0-0.1,0.1-0.1,0.1-0.2c0-0.1,0.1-0.1,0.1-0.2
		c0.1-0.2,0.2-0.3,0.3-0.4c0.2-0.3,0.5-0.5,0.7-0.5c0.3,0,0.5,0.2,0.6,0.6c0,0.1,0.1,0.3,0.1,0.5c0,0.1,0,0.3,0,0.5
		c0,0.3-0.1,0.7-0.1,1.2l-0.1,0.6l-0.1,0.6l-0.1,0.6L78,89.8c-0.1,0.4-0.1,0.8-0.1,1.2c0,0,0,0,0,0.1l0,0.1v0.3c0,0.3,0,0.4,0.1,0.4
		c0.1,0,0.3-0.2,0.5-0.6c0.1-0.1,0.2-0.3,0.3-0.4l0.1-0.2l0.1-0.1c0.5-1,0.9-2.3,1.5-4c0.1-0.2,0.1-0.2,0.3-0.2h0.1
		c0.1,0,0.2,0.1,0.2,0.2c0,0,0,0,0,0.1c0,0,0,0,0,0.1c-0.5,1.7-1,3.1-1.5,4.1c-0.1,0.2-0.2,0.5-0.4,0.7c-0.2,0.3-0.3,0.5-0.5,0.7
		C78,92.7,77.6,93,77.2,93c-0.5,0-0.8-0.5-0.8-1.5v-0.2c0-0.3,0-0.6,0.1-1c0-0.2,0-0.3,0.1-0.5c0-0.1,0-0.1,0-0.2l0-0.1l0-0.1
		l0.2-1.1l0.2-1l0-0.1c0,0,0-0.1,0-0.1c0-0.1,0-0.2,0-0.3c-0.2,0.5-0.4,1-0.7,1.8c-0.3,0.9-0.6,1.8-0.9,2.8c0,0.2-0.1,0.3-0.2,0.5
		c-0.1,0.2-0.2,0.4-0.3,0.6c-0.3,0.5-0.6,0.7-0.9,0.7c-0.3,0-0.5-0.3-0.5-0.9v-0.2c0-0.2,0-0.3,0-0.6c0-0.1,0-0.2,0-0.3l0-0.1l0-0.1
		c0-0.3,0.1-0.6,0.2-0.9l0.2-0.9c0-0.2,0.1-0.4,0.1-0.6c0.1-0.5,0.2-1,0.2-1.3l0,0l0,0l0-0.1c0-0.1,0-0.2,0-0.2
		c-0.3,0.5-0.6,1.3-0.9,2.2c-0.2,0.6-0.4,1.3-0.6,2l-0.1,0.3l-0.1,0.3c-0.1,0.2-0.1,0.5-0.1,0.6c0,0.2-0.2,0.3-0.5,0.4
		c-0.1,0-0.2,0-0.3,0.1c-0.1,0-0.1,0-0.1,0c0,0-0.1,0-0.1,0c-0.1,0-0.2,0-0.3-0.1c-0.1-0.1-0.1-0.1-0.1-0.2c0,0,0-0.1,0-0.1
		c0.1-0.4,0.1-0.8,0.2-1.2c0.1-0.6,0.1-1.1,0.2-1.6c0.1-0.6,0.1-1.1,0.1-1.6c0-0.5,0-0.8-0.1-1.1c0,0,0-0.1,0-0.1c0,0,0,0,0-0.1
		c0-0.1,0-0.1,0.1-0.2c0.1-0.2,0.3-0.3,0.4-0.4C72,86,72.1,86,72.3,86c0.2,0,0.4,0.1,0.5,0.4c0,0.1,0.1,0.2,0.1,0.4
		c0,0.1,0,0.2,0.1,0.4c0,0.2,0,0.4,0,0.7c0,0.4,0,0.8-0.1,1.3l0-0.1c0.3-1,0.7-1.7,1-2.3c0.1-0.1,0.1-0.3,0.2-0.4
		c0.1-0.2,0.2-0.3,0.3-0.4c0.2-0.3,0.5-0.4,0.7-0.4c0.1,0,0.2,0,0.3,0.1c0.3,0.2,0.4,0.6,0.4,1.3v0.2c0,0.3,0,0.6-0.1,1
		c0,0.1,0,0.3-0.1,0.4l-0.1,0.4l-0.1,0.6L75.3,89.9z"/>
	<path class="st6" d="M91.2,90.1c0.8-1.3,1.4-2.8,1.7-4.4c0-0.2,0.1-0.3,0.3-0.3c0.1,0,0.2,0.1,0.2,0.2c0,0,0,0.1,0,0.1
		c-0.3,1.8-1,3.4-1.9,4.9c0.4,0.8,0.8,1.2,1.3,1.2c0.5,0,1.3-0.6,2.2-1.9c0.1-0.1,0.2-0.2,0.2-0.2c0,0,0.1,0,0.1,0.1
		c0.1,0,0.1,0.1,0.1,0.2c0,0,0,0,0,0c0,0.1,0,0.1-0.1,0.2c-1.2,1.8-2.4,2.7-3.3,2.7c-0.6,0-1.1-0.3-1.5-0.9c-0.5,0.6-1,1-1.4,1.3
		c-0.6,0.4-1.1,0.6-1.6,0.6c-0.6,0-1.1-0.3-1.4-0.8c-0.2-0.3-0.3-0.8-0.3-1.2c0-0.2,0-0.4,0.1-0.6c0.2-0.9,0.5-1.7,1-2.4
		c0.4-0.6,0.9-1.1,1.5-1.7c-0.3-1-0.4-2-0.4-2.8c0-0.4,0-0.8,0.1-1.1c0.1-0.8,0.5-1.4,1.1-1.9c0.6-0.5,1.2-0.7,1.9-0.7
		c0.6,0,1,0.2,1.3,0.6c0.2,0.3,0.3,0.6,0.3,1c0,0.2,0,0.4-0.1,0.6c-0.1,0.8-0.5,1.5-0.9,2.1c-0.3,0.5-0.9,1-1.6,1.5
		C90.2,87.7,90.6,88.9,91.2,90.1z M90.1,91.4c-0.7-1.1-1.2-2.3-1.7-3.8c-1.2,1.1-1.9,2.2-2.2,3.6c0,0.2,0,0.3,0,0.5
		c0,0.4,0.1,0.7,0.3,1c0.2,0.4,0.6,0.6,1.1,0.6c0.4,0,0.9-0.2,1.4-0.6C89.3,92.4,89.7,92,90.1,91.4L90.1,91.4z M91.2,84.5
		c0.4-0.5,0.7-1.1,0.8-1.8c0-0.2,0-0.4,0-0.5c0-0.7-0.4-1-1.1-1.1c-0.3,0-0.6,0.2-0.9,0.7c-0.2,0.3-0.3,0.7-0.4,1.1l0,0.2
		c0,0.2-0.1,0.5-0.1,0.8c0,0.2,0,0.4,0,0.7c0,0.5,0.1,0.9,0.2,1.3C90.4,85.3,90.9,84.9,91.2,84.5z"/>
	<path class="st6" d="M103,88.9l0.1-0.1c0.4-0.9,0.7-1.7,1-2.2c0.1-0.1,0.2-0.3,0.2-0.4c0.1-0.2,0.2-0.3,0.3-0.4
		c0.2-0.3,0.5-0.4,0.7-0.4c0.5,0,0.8,0.4,0.9,1.1v0c0,0,0,0,0,0.1c0,0.1,0,0.1-0.1,0.2c-0.1,0.1-0.1,0.1-0.2,0.2c0,0-0.1,0-0.1,0
		c0,0-0.1,0-0.1,0c-0.1,0-0.1-0.1-0.1-0.2c0-0.2,0-0.3-0.1-0.4c-0.1-0.1-0.1-0.2-0.3-0.2c-0.1,0-0.2,0.1-0.3,0.4
		c-0.1,0.1-0.1,0.2-0.2,0.3l-0.1,0.1c0,0,0,0.1,0,0.1c-0.2,0.4-0.4,0.8-0.7,1.4c0,0,0.1,0,0.1,0c0,0,0.1,0,0.1,0
		c0.2,0,0.4,0.2,0.5,0.6l0.1,0.5c0,0.1,0,0.2,0.1,0.3l0.1,0.3c0.1,0.3,0.1,0.5,0.1,0.6c0.1,0.5,0.2,0.9,0.4,1.1c0,0,0,0,0.1,0
		c0,0,0.1,0,0.1,0c0.1-0.1,0.3-0.3,0.4-0.6c0.1-0.1,0.1-0.2,0.2-0.3c0-0.1,0.1-0.2,0.1-0.2c0.5-0.9,1-2.3,1.6-4
		c0-0.1,0.1-0.2,0.2-0.2c0.1,0,0.1-0.1,0.2-0.1h0c0.1,0,0.1,0.1,0.2,0.1c0,0,0,0.1,0,0.1c0,0,0,0.1,0,0.1l0,0.1
		c0,0.1-0.1,0.2-0.1,0.2c0,0.1-0.1,0.2-0.1,0.3c-0.1,0.2-0.1,0.4-0.2,0.6c-0.2,0.6-0.4,1.1-0.6,1.5c-0.5,1.3-1.1,2.2-1.6,2.8l0,0
		l-0.1,0.1c-0.3,0.3-0.6,0.4-1,0.4h0c-0.4,0-0.7-0.3-1-0.9c-0.2-0.4-0.4-1-0.6-1.8c-0.1,0.3-0.2,0.7-0.3,1c-0.1,0.3-0.2,0.6-0.3,0.8
		c-0.1,0.3-0.3,0.5-0.5,0.7c-0.2,0.2-0.4,0.3-0.6,0.3c-0.1,0-0.2,0-0.3-0.1c-0.3-0.2-0.5-0.8-0.5-1.9c0-0.1,0-0.3,0-0.4
		c0-0.5,0-1,0.1-1.5c0-0.2,0-0.4,0.1-0.7l0.1-0.5c0-0.2,0.1-0.5,0.1-0.7c0-0.2,0.1-0.5,0.1-0.7c0-0.2,0.1-0.4,0.2-0.6
		c0.1-0.3,0.2-0.6,0.2-0.9c0.2-0.7,0.4-1.4,0.7-2c0.7-1.7,1.4-2.5,2.2-2.5c0.1,0,0.2,0,0.2,0.1c0.1,0.1,0.2,0.3,0.2,0.5
		c0,0.1,0,0.2,0,0.3c0,0.2-0.1,0.3-0.1,0.5c-0.1,0.3-0.2,0.5-0.3,0.8c-0.1,0.1-0.1,0.2-0.2,0.3c-0.1,0.1-0.1,0.2-0.1,0.3
		c-0.2,0.3-0.3,0.6-0.5,0.9c-0.2,0.3-0.4,0.6-0.7,0.8l-0.1,0.4c-0.2,0.9-0.3,1.9-0.4,3c-0.1,0.7-0.1,1.3-0.1,1.8v0.2
		c0,0,0,0.1,0,0.1c0,0,0,0.1,0,0.1c0,0.1,0,0.2,0,0.3C102.5,90.2,102.7,89.6,103,88.9L103,88.9z M104,81.4l-0.1,0.2
		c0,0,0,0.1-0.1,0.1c-0.2,0.4-0.3,0.8-0.5,1.4l-0.1,0.5c0.1-0.2,0.2-0.4,0.3-0.6c0.2-0.5,0.4-0.9,0.6-1.3c0,0,0-0.1,0-0.1
		c0,0,0-0.1,0-0.1c0-0.1,0-0.2,0-0.2l0-0.1C104.2,81.2,104.1,81.3,104,81.4z"/>
	<path class="st6" d="M108.2,89.4l0-0.2l0-0.2c0-0.3,0.1-0.6,0.1-0.8c0-0.3,0-0.5,0-0.7c0-0.3,0-0.6-0.1-0.7c0,0,0-0.1,0-0.1v0
		c0,0,0-0.1,0-0.2c0.1-0.3,0.2-0.6,0.5-0.9c0.1-0.1,0.2-0.2,0.3-0.3c0.1-0.1,0.3-0.1,0.4-0.1c0.1,0,0.1,0,0.2,0
		c0.2,0.1,0.4,0.3,0.4,0.6c0,0.1,0.1,0.3,0.1,0.4c0,0.1,0,0.3,0,0.4V87c0,0.3,0,0.7,0,1.1l-0.1,0.6l-0.1,0.6c0,0,0,0.1,0,0.2
		c0,0.1,0,0.1,0,0.2c0,0.1,0,0.1,0,0.2c0,0.4-0.1,0.7-0.1,1c0,0.5-0.1,0.8-0.1,1.1c0,0.3,0,0.4,0,0.5c0.3,0,0.7-0.6,1.3-1.9
		c0.5-1.1,1-2.4,1.4-3.9c0-0.1,0.1-0.2,0.2-0.2c0.1,0,0.1-0.1,0.2-0.1h0c0.1,0,0.1,0.1,0.2,0.1c0,0,0,0.1,0,0.1c0,0,0,0.1,0,0.1
		l0,0.1c0,0.1-0.1,0.2-0.1,0.3l-0.1,0.2l-0.1,0.2c-0.1,0.4-0.2,0.7-0.3,1c-0.3,0.9-0.6,1.6-0.8,2.3c-0.8,1.9-1.7,2.9-2.5,2.9h0
		c-0.5,0-0.9-0.5-1-1.5c0-0.3-0.1-0.7-0.1-1.2v-0.1c0-0.4,0-0.7,0.1-1.1C108.2,89.6,108.2,89.5,108.2,89.4z M109.6,82
		c0.2-0.2,0.4-0.2,0.7-0.2c0.1,0,0.1,0,0.2,0c0.3,0.1,0.5,0.2,0.5,0.5c0,0.1,0,0.2,0,0.3c0,0.1,0,0.1,0,0.2c0,0.1,0,0.2-0.1,0.3
		c-0.1,0.3-0.4,0.6-0.6,0.8c-0.2,0.1-0.4,0.2-0.6,0.2c-0.1,0-0.1,0-0.2,0c-0.3,0-0.4-0.2-0.5-0.4c0-0.1-0.1-0.2-0.1-0.3
		c0-0.1,0-0.1,0-0.2c0-0.1,0-0.2,0.1-0.3C109.2,82.4,109.4,82.2,109.6,82z"/>
	<path class="st6" d="M117.1,83.6c0.2-0.6,0.4-1.1,0.7-1.6c0.6-1.1,1.2-1.7,1.8-1.7c0.1,0,0.2,0,0.2,0.1c0.1,0.1,0.2,0.3,0.2,0.5
		c0,0.1,0,0.2,0,0.4l0,0.1c0,0.1-0.1,0.3-0.1,0.5c0,0.1-0.1,0.2-0.1,0.3l0,0.1l0,0.1c-0.3,0.8-0.7,1.8-1.2,3
		c-0.2,0.6-0.5,1.1-0.8,1.7l0,0.1l0,0.1c0,0.1,0,0.2,0,0.3c0,0.2,0,0.4-0.1,0.7c-0.1,0.6-0.1,1.1-0.1,1.6c0,0.2,0,0.4,0,0.6
		c0,1,0.1,1.4,0.3,1.4c0,0,0.1,0,0.1-0.1c0,0,0.1-0.1,0.1-0.1c0,0,0,0,0.1-0.1c0.1-0.1,0.2-0.3,0.3-0.5c0.1-0.2,0.2-0.3,0.3-0.6
		c0.5-1,1-2.3,1.5-4c0-0.1,0.1-0.2,0.2-0.2c0.1,0,0.1-0.1,0.2-0.1h0c0.1,0,0.1,0.1,0.2,0.1c0,0,0,0.1,0,0.1c0,0,0,0.1,0,0.1l0,0.1
		c-0.5,1.7-1,3.1-1.5,4.1l-0.2,0.4c-0.1,0.2-0.2,0.3-0.2,0.4c-0.2,0.3-0.3,0.5-0.5,0.7c-0.4,0.5-0.8,0.7-1.3,0.7
		c-0.4,0-0.7-0.3-0.9-0.8c-0.1-0.2-0.1-0.5-0.2-0.7c0-0.2-0.1-0.5-0.1-0.7c-0.3,0.4-0.6,0.8-0.9,1.1c-0.4,0.3-0.8,0.5-1.1,0.5
		c-0.7,0-1.1-0.5-1.3-1.6c0-0.2,0-0.4,0-0.7c0-0.2,0-0.5,0-0.8c0-0.4,0.1-0.8,0.2-1.2c0.2-0.9,0.5-1.6,0.8-2.3
		c0.5-0.8,1.1-1.2,1.8-1.2c0.5,0,0.9,0.2,1.2,0.7C116.8,84.6,116.9,84.1,117.1,83.6z M114.4,87.9c-0.1,0.7-0.2,1.3-0.2,1.7
		c0,0.8,0.2,1.3,0.7,1.3c0.2,0,0.4-0.2,0.6-0.5c0.1-0.1,0.1-0.3,0.2-0.4c0-0.1,0.1-0.1,0.1-0.2l0-0.1l0-0.1c0-0.3,0.1-0.6,0.1-0.9
		c0-0.2,0.1-0.5,0.1-0.8c0-0.2,0.1-0.5,0.1-0.7c0-0.2,0.1-0.5,0.1-0.7c0-0.1,0.1-0.2,0.1-0.3c-0.1-0.2-0.2-0.4-0.3-0.4
		c-0.1-0.1-0.3-0.2-0.5-0.2C115.1,85.5,114.7,86.3,114.4,87.9z M118.6,82.7c-0.1,0.2-0.2,0.5-0.3,0.8c-0.1,0.2-0.1,0.4-0.2,0.6
		c-0.1,0.3-0.1,0.6-0.2,0.9l0,0.2c0.5-1.1,0.8-2,1.1-2.7c0,0,0-0.1,0-0.1l0-0.1c0-0.1,0.1-0.2,0.1-0.3c0.1-0.2,0.1-0.4,0.1-0.6
		c0,0,0-0.1,0-0.1C119.1,81.5,118.8,82,118.6,82.7z"/>
	<path class="st6" d="M126.4,86.7c0.1-0.2,0.1-0.2,0.3-0.2h0.1c0.1,0,0.2,0.1,0.2,0.2c0,0,0,0,0,0.1c0,0,0,0,0,0.1
		c-0.5,1.5-1.2,2.9-2.2,4.3c-1.2,1.6-2.4,2.4-3.6,2.4c-0.1,0-0.1,0-0.2,0c0,0-0.1-0.1-0.1-0.1v0c0-0.1,0.1-0.3,0.2-0.3
		c0,0,0.1-0.1,0.2-0.1l0.2-0.1c0.3-0.2,0.5-0.5,0.6-0.9c0-0.1,0-0.2,0-0.2c0-0.3-0.1-0.5-0.2-0.8c-0.1-0.2-0.2-0.4-0.3-0.6l-0.2-0.3
		l-0.2-0.3c-0.3-0.5-0.5-1-0.6-1.3c-0.1-0.3-0.2-0.7-0.2-1c0-0.2,0-0.4,0-0.5c0.1-0.8,0.5-1.3,1.2-1.7c0.5-0.2,1-0.3,1.7-0.3h0.1
		c0.1,0,0.2,0.1,0.2,0.2c0,0,0,0.1,0,0.1v0c0,0.2-0.1,0.3-0.3,0.3h-0.1c-0.8,0-1.2,0.3-1.3,0.8c0,0.1,0,0.2,0,0.3
		c0,0.3,0.1,0.6,0.2,0.9c0.1,0.2,0.1,0.4,0.3,0.6l0.2,0.3l0.2,0.3c0.5,1,0.7,1.8,0.7,2.5c0,0.2,0,0.3,0,0.5c0,0.1-0.1,0.2-0.1,0.3
		C124.8,90.4,125.8,88.7,126.4,86.7z"/>
	<path class="st6" d="M131.4,87.2c0-0.2,0.1-0.5,0.1-0.7c0-0.2,0.1-0.4,0.2-0.6c0.1-0.3,0.2-0.6,0.2-0.9c0.2-0.7,0.4-1.4,0.7-2
		c0.7-1.7,1.4-2.5,2.2-2.5c0.1,0,0.2,0,0.3,0.1c0.1,0.1,0.2,0.3,0.2,0.5c0,0.1,0,0.2,0,0.3l0,0.1c0,0.1,0,0.2-0.1,0.3
		c0,0.1-0.1,0.3-0.2,0.4c-0.3,0.7-0.7,1.4-1.2,2.1c-0.2,0.2-0.3,0.5-0.5,0.7l0,0.2c-0.2,1-0.3,2-0.4,2.9c-0.1,0.8-0.1,1.5-0.1,2.1
		c0,0.3,0,0.5,0,0.7c0,0.6,0.1,0.8,0.3,0.8c0.2,0,0.5-0.3,0.8-1c0.5-1,0.9-2.3,1.5-4c0-0.1,0.1-0.2,0.2-0.2c0.1,0,0.1-0.1,0.2-0.1h0
		c0.1,0,0.1,0.1,0.2,0.1c0,0,0,0.1,0,0.1c0,0,0,0.1,0,0.1l0,0.1c-0.5,1.7-1,3.1-1.5,4.1c-0.3,0.6-0.5,1-0.8,1.3
		c-0.4,0.4-0.8,0.6-1.2,0.6c-0.8,0-1.2-0.6-1.3-1.9c0-0.2,0-0.4,0-0.6c0-0.3,0-0.7,0.1-1.1c0-0.2,0-0.5,0.1-0.8
		c0-0.2,0.1-0.4,0.1-0.6C131.3,87.6,131.3,87.4,131.4,87.2z M134.6,81.1c-0.1,0-0.2,0.2-0.4,0.4c-0.1,0.1-0.1,0.2-0.2,0.3
		c0,0,0,0.1-0.1,0.1c0,0,0,0.1,0,0.1c-0.2,0.4-0.3,0.9-0.4,1.4c0.3-0.5,0.6-1,0.8-1.5c0-0.1,0-0.1,0.1-0.2c0-0.1,0.1-0.2,0.1-0.3
		c0-0.1,0.1-0.2,0.1-0.3C134.6,81.2,134.6,81.2,134.6,81.1L134.6,81.1L134.6,81.1z"/>
	<path class="st6" d="M137,82.8c0.1-0.2,0.1-0.4,0.2-0.6c0-0.1,0.1-0.2,0.1-0.3c0-0.1,0.1-0.1,0.1-0.2l0,0c0.1-0.2,0.2-0.3,0.4-0.4
		c0.1-0.1,0.2-0.1,0.4-0.1c0.1,0,0.1,0,0.2,0c0.1,0,0.2,0.1,0.4,0.1c0,0,0.1,0,0.1,0.1c0,0,0.1,0.1,0.1,0.1c0,0,0,0.1,0,0.2v0
		c0,0,0,0,0,0.1c-0.2,0.7-0.4,1.2-0.5,1.5c0.1,0,0.1,0,0.2,0c0.5,0,0.9,0.2,1.2,0.6c0,0,0.1,0.1,0.1,0.1c0,0,0,0,0,0.1
		c0,0.1-0.1,0.1-0.1,0.2c-0.1,0.1-0.1,0.1-0.2,0.1c-0.1,0-0.1,0-0.2-0.1c-0.2-0.3-0.4-0.4-0.7-0.5h-0.1c-0.1,0-0.2,0-0.3,0
		c-0.4,1.6-0.7,2.7-0.9,3.4c-0.2,0.7-0.3,1.4-0.4,2c-0.1,0.5-0.2,0.9-0.2,1.3c0,0.1,0,0.1,0,0.2c0,0.1,0,0.2,0,0.2V91
		c0,0.1,0,0.3,0,0.4c0,0.4,0.2,0.6,0.4,0.6c0.1,0,0.3-0.1,0.6-0.4c0.1-0.1,0.2-0.2,0.3-0.4c0.1-0.1,0.1-0.2,0.2-0.3
		c0.5-0.9,1.2-2.3,1.9-4.3c0.1-0.2,0.1-0.2,0.3-0.2h0.1c0.1,0,0.2,0.1,0.2,0.2c0,0,0,0,0,0.1l0,0.1c-0.7,2-1.3,3.5-1.9,4.5
		c-0.7,1.1-1.3,1.6-2,1.6c-0.9,0-1.4-0.7-1.4-2.1c0-0.3,0-0.6,0.1-0.9c0-0.3,0.1-0.6,0.1-1c0.3-1.4,0.7-2.9,1.2-4.5
		c-0.1,0-0.2,0-0.3,0c-0.5,0-0.9-0.3-1.1-0.8c0,0,0-0.1,0-0.1c0,0,0,0,0,0c0-0.1,0.1-0.2,0.2-0.2c0.1,0,0.1-0.1,0.2-0.1
		c0.1,0,0.1,0,0.2,0.1c0.1,0.3,0.3,0.5,0.5,0.5c0.1,0,0.1,0,0.2,0c0.1,0,0.3,0,0.4-0.1C136.9,83.2,137,82.9,137,82.8z"/>
	<path class="st6" d="M144.5,83.6c0.2-0.6,0.4-1.1,0.7-1.6c0.6-1.1,1.2-1.7,1.8-1.7c0.1,0,0.2,0,0.2,0.1c0.1,0.1,0.2,0.3,0.2,0.5
		c0,0.1,0,0.2,0,0.4l0,0.1c0,0.1-0.1,0.3-0.1,0.5c0,0.1-0.1,0.2-0.1,0.3l0,0.1l0,0.1c-0.3,0.8-0.7,1.8-1.2,3
		c-0.2,0.6-0.5,1.1-0.8,1.7l0,0.1l0,0.1c0,0.1,0,0.2,0,0.3c0,0.2,0,0.4-0.1,0.7c-0.1,0.6-0.1,1.1-0.1,1.6c0,0.2,0,0.4,0,0.6
		c0,1,0.1,1.4,0.3,1.4c0,0,0.1,0,0.1-0.1c0,0,0.1-0.1,0.1-0.1c0,0,0,0,0.1-0.1c0.1-0.1,0.2-0.3,0.3-0.5c0.1-0.2,0.2-0.3,0.3-0.6
		c0.5-1,1-2.3,1.5-4c0-0.1,0.1-0.2,0.2-0.2c0.1,0,0.1-0.1,0.2-0.1h0c0.1,0,0.1,0.1,0.2,0.1c0,0,0,0.1,0,0.1c0,0,0,0.1,0,0.1l0,0.1
		c-0.5,1.7-1,3.1-1.5,4.1l-0.2,0.4c-0.1,0.2-0.2,0.3-0.2,0.4c-0.2,0.3-0.3,0.5-0.5,0.7c-0.4,0.5-0.8,0.7-1.3,0.7
		c-0.4,0-0.7-0.3-0.9-0.8c-0.1-0.2-0.1-0.5-0.2-0.7c0-0.2-0.1-0.5-0.1-0.7c-0.3,0.4-0.6,0.8-0.9,1.1c-0.4,0.3-0.8,0.5-1.1,0.5
		c-0.7,0-1.1-0.5-1.3-1.6c0-0.2,0-0.4,0-0.7c0-0.2,0-0.5,0-0.8c0-0.4,0.1-0.8,0.2-1.2c0.2-0.9,0.5-1.6,0.8-2.3
		c0.5-0.8,1.1-1.2,1.8-1.2c0.5,0,0.9,0.2,1.2,0.7C144.1,84.6,144.3,84.1,144.5,83.6z M141.8,87.9c-0.1,0.7-0.2,1.3-0.2,1.7
		c0,0.8,0.2,1.3,0.7,1.3c0.2,0,0.4-0.2,0.6-0.5c0.1-0.1,0.1-0.3,0.2-0.4c0-0.1,0.1-0.1,0.1-0.2l0-0.1l0-0.1c0-0.3,0.1-0.6,0.1-0.9
		c0-0.2,0.1-0.5,0.1-0.8c0-0.2,0.1-0.5,0.1-0.7c0-0.2,0.1-0.5,0.1-0.7c0-0.1,0.1-0.2,0.1-0.3c-0.1-0.2-0.2-0.4-0.3-0.4
		c-0.1-0.1-0.3-0.2-0.5-0.2C142.5,85.5,142,86.3,141.8,87.9z M146,82.7c-0.1,0.2-0.2,0.5-0.3,0.8c-0.1,0.2-0.1,0.4-0.2,0.6
		c-0.1,0.3-0.1,0.6-0.2,0.9l0,0.2c0.5-1.1,0.8-2,1.1-2.7c0,0,0-0.1,0-0.1l0-0.1c0-0.1,0.1-0.2,0.1-0.3c0.1-0.2,0.1-0.4,0.1-0.6
		c0,0,0-0.1,0-0.1C146.4,81.5,146.2,82,146,82.7z"/>
</g>
</svg>
